<?xml version="1.0" standalone="no"?><!DOCTYPE svg PUBLIC "-//W3C//DTD SVG 1.1//EN" "http://www.w3.org/Graphics/SVG/1.1/DTD/svg11.dtd"><svg class="icon" width="20px" height="19.50px" viewBox="0 0 1050 1024" version="1.1" xmlns="http://www.w3.org/2000/svg"><path fill="" d="M514.56 1016.32C232.96 1016.32 7.68 788.48 7.68 509.44 7.68 230.4 232.96 0 514.56 0 796.16 0 1021.44 227.84 1021.44 506.88 1021.44 785.92 793.6 1016.32 514.56 1016.32L514.56 1016.32ZM514.56 58.88C266.24 58.88 64 261.12 64 509.44 64 757.76 266.24 960 514.56 960 762.88 960 965.12 757.76 965.12 509.44 965.12 261.12 762.88 58.88 514.56 58.88L514.56 58.88ZM796.16 706.56 232.96 706.56C217.6 706.56 204.8 693.76 204.8 678.4L204.8 622.08 826.88 622.08 826.88 678.4C824.32 693.76 811.52 706.56 796.16 706.56L796.16 706.56ZM204.8 312.32C204.8 296.96 217.6 284.16 232.96 284.16L796.16 284.16C811.52 284.16 824.32 296.96 824.32 312.32L824.32 593.92 204.8 593.92 204.8 312.32 204.8 312.32ZM542.72 537.6 711.68 537.6C727.04 537.6 739.84 524.8 739.84 509.44 739.84 494.08 727.04 481.28 711.68 481.28L542.72 481.28C527.36 481.28 514.56 494.08 514.56 509.44 514.56 524.8 527.36 537.6 542.72 537.6L542.72 537.6ZM542.72 424.96 711.68 424.96C727.04 424.96 739.84 412.16 739.84 396.8 739.84 381.44 727.04 368.64 711.68 368.64L542.72 368.64C527.36 368.64 514.56 381.44 514.56 396.8 514.56 412.16 527.36 424.96 542.72 424.96L542.72 424.96ZM289.28 509.44C289.28 524.8 302.08 537.6 317.44 537.6L430.08 537.6C445.44 537.6 458.24 524.8 458.24 509.44L458.24 396.8C458.24 381.44 445.44 368.64 430.08 368.64L317.44 368.64C302.08 368.64 289.28 381.44 289.28 396.8L289.28 509.44 289.28 509.44Z" /></svg>
