<?xml version="1.0" standalone="no"?><!DOCTYPE svg PUBLIC "-//W3C//DTD SVG 1.1//EN" "http://www.w3.org/Graphics/SVG/1.1/DTD/svg11.dtd"><svg class="icon" width="20px" height="20.00px" viewBox="0 0 1024 1024" version="1.1" xmlns="http://www.w3.org/2000/svg"><path fill="" d="M813.142857 365.714286q10.285714 104-74.857143 147.428571 66.857143 16 100 58.857143t25.714286 122.285714q-4 40.571429-18.571429 71.428572t-36.857142 50.857143-55.428572 33.428571-69.428571 19.714286-83.142857 8.571428v145.714286H512.571429v-143.428571q-45.714286 0-69.714286-0.571429v144H354.857143v-145.714286q-10.285714 0-30.857143-0.285714t-31.428571-0.285714H178.285714l17.714286-104.571429h63.428571q28.571429 0 33.142858-29.142857V514.285714h9.142857q-3.428571-0.571429-9.142857-0.571428V349.714286q-7.428571-38.857143-50.857143-38.857143H178.285714V217.142857l121.142857 0.571429q36.571429 0 55.428572-0.571429V73.142857h88v141.142857q46.857143-1.142857 69.714286-1.142857V73.142857h88v144q45.142857 4 80 12.857143t64.571428 25.714286 47.142857 44.571428T813.142857 365.714286z m-122.857143 311.428571q0-20.571429-8.571428-36.571428t-21.142857-26.285715-32.857143-17.428571T590.285714 586.285714t-42.285714-5.142857-39.428571-1.714286-36.857143 0.571429-27.142857 0.571429v193.142857q4.571429 0 21.142857 0.285714t27.428571 0.285714 30.285714-0.857143 33.428572-2.285714 32.571428-4.857143 31.714286-8 27.142857-12 22.571429-17.142857 14-22.857143 5.428571-29.142857z m-40.571428-272q0-18.857143-7.142857-33.428571t-17.428572-24-27.428571-16-31.428572-9.428572-35.142857-4.571428-33.142857-1.428572-30.857143 0.571429-22.571428 0.285714v175.428572q2.857143 0 19.714285 0.285714t26.571429 0 28.571428-1.142857 31.428572-3.142857 29.428571-6.285715 27.714286-10.571428 21.142857-15.428572 15.428572-22 5.142857-29.142857z" /></svg>
