<?xml version="1.0" standalone="no"?><!DOCTYPE svg PUBLIC "-//W3C//DTD SVG 1.1//EN" "http://www.w3.org/Graphics/SVG/1.1/DTD/svg11.dtd"><svg class="icon" width="20px" height="20.00px" viewBox="0 0 1024 1024" version="1.1" xmlns="http://www.w3.org/2000/svg"><path fill="" d="M509.352851 997.76817C257.601362 997.76817 52.790468 792.946383 52.790468 541.205787c0-132.978383 57.790638-259.050213 158.578383-345.905021l28.007489 32.484766C148.066043 306.491915 95.689532 420.722383 95.689532 541.205787c0 228.090553 185.572766 413.663319 413.663319 413.663319 228.101447 0 413.652426-185.561872 413.652426-413.663319 0-118.217532-50.753362-231.053617-139.285787-309.574809l28.486809-32.092596c97.683064 86.669617 153.698043 211.194553 153.698043 341.667404C965.90434 792.946383 761.10434 997.76817 509.352851 997.76817zM501.106383 10.893617l43.574468 0 0 577.361702-43.574468 0 0-577.361702Z" /></svg>
